# xmcd
#
# Track frame offsets: 
#        150
#        10765
#        22238
#        33751
#        45536
#        55326
#        64367
#        76614
#        88116
#        97985
#        109590
#        119567
#        132409
#        144835
#        158835
#        172847
#        182892
#        197114
#        211723
#        224702
#        234959
#        243608
#        254240
#        269137
#        288642
#        300363
#        316443
#        326516
#        343392
#
# Disc length: 4677 seconds
#
# Revision: 0
# Processed by: cddbd v1.5.2PL0 Copyright (c) Steve Scherf et al.
# Submitted via: ExactAudioCopyFreeDBPlugin 1.0
#
DISCID=b112431d
DTITLE=Various Artist - Twisted Tales From The Vinyl Wastelands Volum
DTITLE=e 1
DYEAR=2010
DGENRE=Novelty
TTITLE0=Horace Heller - Hello World
TTITLE1=Scottie Stoneman - The Martian Band
TTITLE2=Sidney Ester - U.F.O. on Farm Road 318
TTITLE3=Cousin Jody - Lady Cop
TTITLE4=Tiny Tim - Back Pocket Money
TTITLE5=Johnny Banjo - Banjo Lovin' Hound Dog
TTITLE6=Benny Johnson - Burn Your Bra Baby
TTITLE7=Rudy Preston - Poor White Trash
TTITLE8=Little Carolyn Sue - I Hate Men
TTITLE9=Kirk Hansard - Nudist Colony
TTITLE10=Neal Merritt - Booze It
TTITLE11=Larry Steele - Little Jimmy
TTITLE12=Charles Huff - Legend of Hole
TTITLE13=Jack Reeves - The Gun Slinger
TTITLE14=Dewain Olby - Ironworker Blues
TTITLE15=Bud Parker - Iron Worker's Lament
TTITLE16=Hank Penny - The Strong Black Man
TTITLE17=Marvin Rainwater - Tears
TTITLE18=Johnny Buckett - Jackson Jail House Blues
TTITLE19=T. Craig - Ole Joe Clark
TTITLE20=Fatima - Squaw Girl
TTITLE21=Li'l Smokey Miller - Cotton Patch
TTITLE22=Big Rock and Tadpole - Ain't Hit a Shame
TTITLE23=Gene Price - A Boy Named Hugh
TTITLE24=Cousin Jody 'n Odie - Television Set
TTITLE25=Tommy Scott and Scotty Lee - Exorcism
TTITLE26=Duane Williams - The Devil Made Me Do It
TTITLE27=Bill Moss Jr. - When Teddy Bear Took His Last Ride
TTITLE28=Lonnie Glosson - Ozark Cat Chase
EXTD=
EXTT0=
EXTT1=
EXTT2=
EXTT3=
EXTT4=
EXTT5=
EXTT6=
EXTT7=
EXTT8=
EXTT9=
EXTT10=
EXTT11=
EXTT12=
EXTT13=
EXTT14=
EXTT15=
EXTT16=
EXTT17=
EXTT18=
EXTT19=
EXTT20=
EXTT21=
EXTT22=
EXTT23=
EXTT24=
EXTT25=
EXTT26=
EXTT27=
EXTT28=
PLAYORDER=
